<svg xmlns="http://www.w3.org/2000/svg" width='80' height='80' data-name="Layer 1" viewBox="0 0 128 160" stroke-width='0.5' fill='#23d178' x="0px" y="0px"><path d="M10,116A10.01146,10.01146,0,0,0,0,126a2.0001,2.0001,0,0,0,2,2H60a2.0001,2.0001,0,0,0,2-2,10.01146,10.01146,0,0,0-10-10H46v-5h2a6.00656,6.00656,0,0,0,6-6v-4H65v1.5a6.5,6.5,0,0,0,13,0V94a6.00656,6.00656,0,0,0-6-6H53V62A22,22,0,0,0,9,62V88H6.5a6.5,6.5,0,0,0,0,13H8v4a6.00656,6.00656,0,0,0,6,6h2v5Zm3-54a18,18,0,0,1,36,0V88H13ZM6.5,97a2.5,2.5,0,0,1,0-5H72a2.00229,2.00229,0,0,1,2,2v8.5a2.5,2.5,0,0,1-5,0V99a2.0001,2.0001,0,0,0-2-2ZM14,107a2.00229,2.00229,0,0,1-2-2v-4H50v4a2.00229,2.00229,0,0,1-2,2Zm28,4v5H20v-5Zm10,9a6.01017,6.01017,0,0,1,5.65723,4H4.34277A6.01017,6.01017,0,0,1,10,120Z"/><path d="M39,59H23a2,2,0,0,0,0,4H39a2,2,0,0,0,0-4Z"/><path d="M39,65H23a2,2,0,0,0,0,4H39a2,2,0,0,0,0-4Z"/><path d="M39,71H23a2,2,0,0,0,0,4H39a2,2,0,0,0,0-4Z"/><path d="M77.124,56.91077a16.17057,16.17057,0,0,0,8.85126,2.60083,14.77284,14.77284,0,0,0,6.84326-1.60944v7.61139l-9.03333-4.14587a3.98864,3.98864,0,0,0-3.82935.272,4.26781,4.26781,0,0,0-1.94641,3.62158V78.73877a4.26781,4.26781,0,0,0,1.94641,3.62158,3.98372,3.98372,0,0,0,3.82935.272l8.02014-3.68085c-1.26648,2.91284-3.80261,6.36053-8.67413,6.05243a1.99994,1.99994,0,0,0-.248,3.99219c.29382.01855.58179.02734.86584.02734a11.59738,11.59738,0,0,0,9.06946-4.236v37.02826a6.18152,6.18152,0,1,0,12.363,0V83.58887a11.8767,11.8767,0,0,0,10.00458,5.43457q.42462,0,.86584-.02734a1.99994,1.99994,0,0,0-.24792-3.99219c-4.54358.27277-7.05951-2.72955-8.40625-5.50031l6.81708,3.12872a3.98033,3.98033,0,0,0,3.82935-.272,4.26781,4.26781,0,0,0,1.94641-3.62158V65.26123a4.26781,4.26781,0,0,0-1.94641-3.62158,3.98439,3.98439,0,0,0-3.82935-.272l-9.03333,4.14587V57.90216a14.77291,14.77291,0,0,0,6.84332,1.60944,16.17051,16.17051,0,0,0,8.8512-2.60083c5.7804-3.83063,8.447-11.58936,6.48492-18.8678-.10889-.40393-.22931-.80463-.35858-1.20227a48.71305,48.71305,0,0,0-3.60559-7.95441l-.57745-1.06714c-2.85077-5.256-5.79864-10.691-4.17145-15.53174a9.80112,9.80112,0,0,1,.6402-1.47748l.10291-.18091A16.80273,16.80273,0,0,0,120.558,8.2666c1.45129-3.83514-.77661-5.74457-1.4939-6.2384a4.41364,4.41364,0,0,0-2.48853-.77246c-2.66681,0-4.688,2.06866-7.20868,7.37823a22.92644,22.92644,0,0,0-2.26929,8.99005,32.89717,32.89717,0,0,0,2.06415,12.27679,47.65653,47.65653,0,0,0,2.37158,5.29486,31.60806,31.60806,0,0,1,2.34143,5.50342,5.34085,5.34085,0,0,1-.66058,4.72705,2.54056,2.54056,0,0,1-1.866.6933,3.95,3.95,0,0,1-1.97839-.53595,22.692,22.692,0,0,1-3.33154-3.91705l1.45428-3.80212a4.00124,4.00124,0,0,0,.226-1.98022L103.212,3.44928A3.99876,3.99876,0,0,0,99.28235.00012L99.25146,0A3.99879,3.99879,0,0,0,95.3006,3.389L90.29028,35.82391a4.00165,4.00165,0,0,0,.2171,2.04041l1.66583,4.35529c-1.27026,1.32825-3.18414,3.24286-3.6825,3.69775a1.94,1.94,0,0,1-1.29187.4,3.901,3.901,0,0,1-3.44049-1.96179c-.90869-2.5719.77789-5.74927,2.5636-9.1131a41.15029,41.15029,0,0,0,2.51624-5.34149A32.897,32.897,0,0,0,90.9024,17.62415,22.92553,22.92553,0,0,0,88.63306,8.634c-2.51947-5.30823-4.54022-7.377-7.20679-7.37823h-.00281a4.37791,4.37791,0,0,0-2.45251.7486C78.21863,2.522,75.99072,4.4314,77.442,8.2666A16.80343,16.80343,0,0,0,78.609,10.629l.1059.18646a9.78345,9.78345,0,0,1,.63727,1.47192c1.62714,4.8407-1.32068,10.2757-4.17145,15.53174l-.57751,1.06714a48.71881,48.71881,0,0,0-3.60565,7.95465c-.12921.3974-.24963.7981-.35858,1.20233C68.67694,45.32135,71.34363,53.08008,77.124,56.91077ZM91.0036,73a7.97491,7.97491,0,0,0,.21759,1.82324L82.12964,79.001c-.02441-.00684-.122-.07568-.122-.26221V65.26123c0-.18652.0976-.25537.11029-.25781l9.71991,4.46088A7.94,7.94,0,0,0,91.0036,73Zm24.8775-7.99609a.28252.28252,0,0,1,.11127.25732V78.73877c0,.18652-.0976.25537-.11029.25781l-9.10223-4.17743a7.85594,7.85594,0,0,0-.61768-5.35486Zm-14.69781,56.81183a2.18329,2.18329,0,1,1-4.36658,0V80.68921a7.82413,7.82413,0,0,0,4.36658,0ZM99,77a4,4,0,1,1,3.99823-4A4.00338,4.00338,0,0,1,99,77ZM74.49939,39.08459c.09113-.33832.19208-.67371.30035-1.00653a44.63208,44.63208,0,0,1,3.32318-7.29419C81.393,24.713,85.45752,17.90155,83.14178,11.01239A13.74143,13.74143,0,0,0,82.24048,8.929c-.30377-.57031-1.87457-3.02966-1.038-3.60559a.38815.38815,0,0,1,.222-.06763c1.14355.00055,3.31482,4.49963,3.59711,5.09436a18.973,18.973,0,0,1,1.88556,7.426A29.03932,29.03932,0,0,1,85.07257,28.5564c-1.89,5.29767-7.20135,11.139-5.08386,17.13214.97076,2.7478,4.18677,4.62878,7.21014,4.62878a5.81312,5.81312,0,0,0,3.98676-1.44513c.72986-.6662,5.46539-5.39172,5.38226-5.63434a4.07464,4.07464,0,0,1-.25232-1.38062l-2.074-5.42242L99.25189,4l4.50653,32.43481-2.14178,5.59979c.22809.839,3.7901,5.83484,5.69647,6.979a7.92264,7.92264,0,0,0,4.03516,1.10583,6.42333,6.42333,0,0,0,4.82422-2.00244c2.02148-2.22437,2.32843-5.68182,1.55658-8.48138-1.07611-3.90363-3.44739-7.28308-4.80164-11.07935a29.03868,29.03868,0,0,1-1.83453-10.78021,18.973,18.973,0,0,1,1.88556-7.426c.28235-.59479,2.45367-5.09436,3.59717-5.09436a.38934.38934,0,0,1,.222.06763c.83649.57593-.73431,3.03528-1.03809,3.60559a13.74143,13.74143,0,0,0-.90131,2.08344c-2.31573,6.88916,1.74884,13.70062,5.01892,19.77148a44.6318,44.6318,0,0,1,3.32312,7.29419c.10828.33282.20923.66821.30042,1.00653,1.38422,5.13452-.15967,11.39471-4.83252,14.49146a12.20287,12.20287,0,0,1-6.64331,1.93555,10.4804,10.4804,0,0,1-6.15173-1.8681,39.41881,39.41881,0,0,1-4.68982-4.03473v15.702a7.82413,7.82413,0,0,0-4.36658,0V49.74908a46.8196,46.8196,0,0,1-4.68982,3.89441,10.47878,10.47878,0,0,1-6.15167,1.8681A12.20441,12.20441,0,0,1,79.33191,53.576C74.65906,50.47931,73.11517,44.21912,74.49939,39.08459Z"/></svg>